<mxfile host="app.diagrams.net" modified="2020-11-16T05:08:12.175Z" agent="5.0 (Macintosh; Intel Mac OS X 10_15_7) AppleWebKit/537.36 (KHTML, like Gecko) Chrome/86.0.4240.80 Safari/537.36" etag="q6eXayQLpRw6gsmW2C5W" version="13.9.7" type="github">
  <diagram id="MrLP94rEc2Uisvt3uWC4" name="Page-1">
    <mxGraphModel dx="1577" dy="2151" grid="1" gridSize="10" guides="1" tooltips="1" connect="1" arrows="1" fold="1" page="1" pageScale="1" pageWidth="827" pageHeight="1169" math="0" shadow="0">
      <root>
        <mxCell id="0" />
        <mxCell id="1" parent="0" />
        <mxCell id="6DCV4Yj6SbconfikSTmA-2" value="" style="rounded=0;whiteSpace=wrap;html=1;" vertex="1" parent="1">
          <mxGeometry x="40" y="-360" width="520" height="280" as="geometry" />
        </mxCell>
        <mxCell id="6DCV4Yj6SbconfikSTmA-3" value="名前" style="rounded=0;whiteSpace=wrap;html=1;" vertex="1" parent="1">
          <mxGeometry x="130" y="-340" width="120" height="30" as="geometry" />
        </mxCell>
        <mxCell id="6DCV4Yj6SbconfikSTmA-4" value="写真" style="ellipse;whiteSpace=wrap;html=1;aspect=fixed;" vertex="1" parent="1">
          <mxGeometry x="110" y="-280" width="160" height="160" as="geometry" />
        </mxCell>
        <mxCell id="6DCV4Yj6SbconfikSTmA-6" value="経歴" style="rounded=0;whiteSpace=wrap;html=1;" vertex="1" parent="1">
          <mxGeometry x="370" y="-330" width="100" height="30" as="geometry" />
        </mxCell>
        <mxCell id="6DCV4Yj6SbconfikSTmA-7" value="研究" style="rounded=0;whiteSpace=wrap;html=1;" vertex="1" parent="1">
          <mxGeometry x="370" y="-260" width="100" height="30" as="geometry" />
        </mxCell>
        <mxCell id="6DCV4Yj6SbconfikSTmA-9" value="github" style="ellipse;whiteSpace=wrap;html=1;aspect=fixed;" vertex="1" parent="1">
          <mxGeometry x="320" y="-180" width="50" height="50" as="geometry" />
        </mxCell>
        <mxCell id="6DCV4Yj6SbconfikSTmA-10" value="twitter" style="ellipse;whiteSpace=wrap;html=1;aspect=fixed;" vertex="1" parent="1">
          <mxGeometry x="395" y="-180" width="50" height="50" as="geometry" />
        </mxCell>
        <mxCell id="6DCV4Yj6SbconfikSTmA-11" value="insta" style="ellipse;whiteSpace=wrap;html=1;aspect=fixed;" vertex="1" parent="1">
          <mxGeometry x="470" y="-180" width="50" height="50" as="geometry" />
        </mxCell>
        <mxCell id="6DCV4Yj6SbconfikSTmA-15" value="" style="rounded=0;whiteSpace=wrap;html=1;" vertex="1" parent="1">
          <mxGeometry x="40" width="520" height="280" as="geometry" />
        </mxCell>
        <mxCell id="6DCV4Yj6SbconfikSTmA-16" value="" style="rounded=0;whiteSpace=wrap;html=1;" vertex="1" parent="1">
          <mxGeometry x="40" y="370" width="520" height="280" as="geometry" />
        </mxCell>
        <mxCell id="6DCV4Yj6SbconfikSTmA-17" value="経歴" style="rounded=0;whiteSpace=wrap;html=1;" vertex="1" parent="1">
          <mxGeometry x="130" y="30" width="100" height="30" as="geometry" />
        </mxCell>
        <mxCell id="6DCV4Yj6SbconfikSTmA-18" value="研究" style="rounded=0;whiteSpace=wrap;html=1;" vertex="1" parent="1">
          <mxGeometry x="130" y="410" width="100" height="30" as="geometry" />
        </mxCell>
      </root>
    </mxGraphModel>
  </diagram>
</mxfile>
